<svg width="126" height="128" viewBox="0 0 126 128" fill="none" xmlns="http://www.w3.org/2000/svg">
<g id="account">
<path id="Vector" d="M63 21.334C68.5695 21.334 73.911 23.5816 77.8492 27.5824C81.7875 31.5831 84 37.0094 84 42.6673C84 48.3253 81.7875 53.7515 77.8492 57.7523C73.911 61.753 68.5695 64.0007 63 64.0007C57.4305 64.0007 52.089 61.753 48.1508 57.7523C44.2125 53.7515 42 48.3253 42 42.6673C42 37.0094 44.2125 31.5831 48.1508 27.5824C52.089 23.5816 57.4305 21.334 63 21.334ZM63 74.6673C86.205 74.6673 105 84.214 105 96.0007V106.667H21V96.0007C21 84.214 39.795 74.6673 63 74.6673Z" fill="white"/>
</g>
</svg>
