<svg width="44" height="44" viewBox="0 0 44 44" fill="none" xmlns="http://www.w3.org/2000/svg">
<g id="brightness-percent">
<path id="Vector" d="M36.7401 15.968V7.33298H28.1235L22.0001 1.26465L15.9685 7.33298H7.33347V15.968L1.26514 21.9996L7.33347 28.123V36.7396H15.9685L22.0001 42.808L28.1235 36.7396H36.7401V28.123L42.8085 21.9996L36.7401 15.968ZM16.1885 12.9246C17.9851 12.9246 19.4335 14.373 19.4335 16.188C19.4335 17.0486 19.0916 17.874 18.483 18.4825C17.8745 19.0911 17.0491 19.433 16.1885 19.433C14.3735 19.433 12.9251 17.9846 12.9251 16.188C12.9251 14.373 14.3735 12.9246 16.1885 12.9246ZM27.9035 31.1663C26.1068 31.1663 24.6585 29.6997 24.6585 27.903C24.6585 27.0424 25.0004 26.217 25.6089 25.6084C26.2175 24.9999 27.0428 24.658 27.9035 24.658C29.7001 24.658 31.1668 26.1063 31.1668 27.903C31.1668 28.7685 30.823 29.5985 30.211 30.2105C29.599 30.8225 28.769 31.1663 27.9035 31.1663ZM15.5835 31.2213L12.8335 28.4713L28.4718 12.833L31.2218 15.583L15.5835 31.2213Z" fill="#2F2E41"/>
</g>
</svg>
