<svg width="54" height="54" viewBox="0 0 54 54" fill="none" xmlns="http://www.w3.org/2000/svg">
<g id="cash">
<path id="Vector" d="M6.75 13.5H47.25V40.5H6.75V13.5ZM27 20.25C28.7902 20.25 30.5071 20.9612 31.773 22.227C33.0388 23.4929 33.75 25.2098 33.75 27C33.75 28.7902 33.0388 30.5071 31.773 31.773C30.5071 33.0388 28.7902 33.75 27 33.75C25.2098 33.75 23.4929 33.0388 22.227 31.773C20.9612 30.5071 20.25 28.7902 20.25 27C20.25 25.2098 20.9612 23.4929 22.227 22.227C23.4929 20.9612 25.2098 20.25 27 20.25ZM15.75 18C15.75 19.1935 15.2759 20.3381 14.432 21.182C13.5881 22.0259 12.4435 22.5 11.25 22.5V31.5C12.4435 31.5 13.5881 31.9741 14.432 32.818C15.2759 33.6619 15.75 34.8065 15.75 36H38.25C38.25 34.8065 38.7241 33.6619 39.568 32.818C40.4119 31.9741 41.5565 31.5 42.75 31.5V22.5C41.5565 22.5 40.4119 22.0259 39.568 21.182C38.7241 20.3381 38.25 19.1935 38.25 18H15.75Z" fill="#2F2E41"/>
</g>
</svg>
