<svg width="45" height="45" viewBox="0 0 45 45" fill="none" xmlns="http://www.w3.org/2000/svg">
<g id="facebook">
<path id="Vector" d="M22.5 0.824219C12.1875 0.824219 3.75 9.24297 3.75 19.6117C3.75 28.9867 10.6125 36.768 19.575 38.1742V25.0492H14.8125V19.6117H19.575V15.468C19.575 10.7617 22.3688 8.17422 26.6625 8.17422C28.7063 8.17422 30.8438 8.53047 30.8438 8.53047V13.1617H28.4812C26.1562 13.1617 25.425 14.6055 25.425 16.0867V19.6117H30.6375L29.7938 25.0492H25.425V38.1742C29.8433 37.4764 33.8666 35.2221 36.7686 31.8181C39.6706 28.4141 41.26 24.0848 41.25 19.6117C41.25 9.24297 32.8125 0.824219 22.5 0.824219Z" fill="white"/>
</g>
</svg>
