<svg width="48" height="52" viewBox="0 0 48 52" fill="none" xmlns="http://www.w3.org/2000/svg">
<g id="Group">
<path id="Vector" d="M29.1452 33.8231L30.7374 23.9552L19.9903 19.6133L18.3982 34.6125L29.1452 33.8231Z" fill="#A0616A"/>
<path id="Vector_2" d="M39.9463 48.4074C39.0236 48.8535 38.0834 49.2562 37.129 49.6134C35.2203 50.3296 33.2501 50.87 31.229 51.2308C29.2535 51.5845 27.2253 51.7641 25.1971 51.7641C22.4571 51.7641 19.7329 51.4382 17.0983 50.7933C16.0667 50.5424 15.0262 50.2357 14.0033 49.8782C13.8961 49.84 13.7872 49.8017 13.6799 49.7632C12.411 49.3067 11.1631 48.7716 9.96275 48.1669C9.80103 48.0867 9.63935 48.0047 9.47767 47.9175C9.2984 47.827 9.12088 47.7311 8.94161 47.6317C8.71312 47.508 8.48639 47.379 8.25966 47.2483C7.50044 46.8126 6.75348 46.3419 6.03991 45.8523L5.99245 45.821C5.95028 45.7913 5.9081 45.7634 5.86768 45.7338C5.89402 45.5961 5.91865 45.4705 5.94148 45.359C6.02936 44.9216 6.08737 44.6811 6.08737 44.6811L10.8995 34.8233L12.2405 32.0766L12.8943 31.8099L17.833 29.7969H29.9038L33.7123 31.3585C33.7123 31.3585 33.7317 31.43 33.7704 31.5677C34.15 32.9184 36.3645 40.587 39.8005 48.0901C39.8479 48.1946 39.8971 48.301 39.9463 48.4074Z" fill="#F34C40"/>
<path id="Vector_3" d="M26.4294 27.1285C32.4821 27.1285 37.3888 22.2628 37.3888 16.2605C37.3888 10.2583 32.4821 5.39258 26.4294 5.39258C20.3767 5.39258 15.47 10.2583 15.47 16.2605C15.47 22.2628 20.3767 27.1285 26.4294 27.1285Z" fill="#A0616A"/>
<path id="Vector_4" d="M12.9136 31.7168L12.8948 31.8103L9.5535 47.5642L9.52458 47.7014L9.47804 47.9184C9.29822 47.8274 9.12091 47.7313 8.94234 47.6328C8.71347 47.5081 8.48711 47.3797 8.25949 47.2487C7.5012 46.8135 6.75422 46.3421 6.03995 45.8533L5.99216 45.8209C5.95066 45.7922 5.90791 45.7635 5.86767 45.7348C5.32189 45.357 4.78996 44.9629 4.27059 44.5564C4.26682 44.5539 4.26431 44.5514 4.26053 44.5476C3.33373 43.8069 2.44088 43.01 1.58701 42.1633C1.03622 41.6171 0.50679 41.0547 0 40.4773L0.0767165 40.158L0.0842614 40.1256L0.179828 39.7191C1.02992 36.1588 3.90591 33.4265 7.52886 32.7381L12.3427 31.824L12.9136 31.7168Z" fill="#F34C40"/>
<path id="Vector_5" d="M47.0453 43.8002C45.6269 44.9976 44.1067 46.0817 42.502 47.0333C42.3456 47.1275 42.1857 47.2197 42.0257 47.3121C41.3438 47.7026 40.6496 48.0668 39.9466 48.4067C39.0238 48.8528 38.0836 49.2555 37.1293 49.6128L37.0554 49.2676L33.282 31.4746L33.7706 31.567L38.6671 32.4977C42.2894 33.1862 45.1665 35.9189 46.0153 39.4796L46.9521 43.4133L47.0453 43.8002Z" fill="#F34C40"/>
<path id="Vector_6" d="M39.05 19.1651C38.7653 20.2178 37.3329 24.9218 33.6649 25.9117C32.9444 26.1069 31.2255 26.3318 31.6807 25.9117C31.7844 25.8159 31.8846 25.7218 31.9847 25.6294C35.9656 21.9171 37.5895 19.6479 36.8478 14.6109C36.3768 11.404 31.0128 8.49165 27.9951 8.2023C26.7226 8.08044 25.0987 8.50731 24.0266 9.60716C22.2568 11.4196 22.5485 16.9831 21.5678 20.251C21.3042 21.1258 20.9509 21.8369 20.443 22.2673C20.1266 22.5358 19.9245 22.1942 19.7751 21.6347C19.457 20.446 19.3744 18.2693 18.9227 18.8844C17.6169 20.6674 18.8612 23.0307 19.2373 23.9423C19.3146 24.1289 19.3937 24.3082 19.4728 24.4791V24.4808C19.5185 24.5784 19.566 24.676 19.6117 24.7685V24.7702C20.8665 27.3077 22.3745 28.2158 23.7032 29.7966C24.2252 30.4153 24.7191 31.1351 25.1602 32.0972C25.4625 32.7561 25.6804 33.4183 25.8299 34.0683C26.5908 37.3276 25.6875 40.2887 25.4432 41.094C24.9317 42.7706 24.053 45.6515 21.4747 47.2776C18.2372 49.3204 15.2829 47.52 13.8698 49.4598C13.8522 49.4824 13.8364 49.505 13.8206 49.5277C13.7678 49.6061 13.7204 49.6846 13.68 49.7629C12.411 49.3064 11.1632 48.7713 9.96279 48.1666C9.80107 48.0864 9.63939 48.0044 9.47771 47.9172C9.29844 47.8267 9.12093 47.7308 8.94165 47.6315C8.93462 47.4955 8.92758 47.3596 8.9223 47.2219C8.81864 44.8638 8.97504 42.2721 9.56735 39.6874C9.94696 38.037 10.3231 36.4003 10.8995 34.823C11.2757 33.7948 11.7361 32.7908 12.3425 31.8235C12.8276 31.0462 13.404 30.2915 14.1035 29.5665C15.6396 27.9752 17.0053 27.3113 17.2214 25.631C17.5307 23.2329 15.0122 22.5114 14.1035 18.8844C13.4831 16.4044 12.8346 12.8298 13.4638 10.4211C14.0579 8.14493 14.5746 6.17024 16.2987 4.23555C16.7135 3.77191 20.1179 0.547593 24.0618 0.0177524C25.879 -0.224446 27.4995 2.08316 29.6964 2.57981C32.222 3.14982 33.6684 3.47576 35.0815 4.54753C37.47 6.35661 38.1431 9.06164 38.7671 11.5749C39.2557 13.5409 39.8884 16.0837 39.05 19.1651Z" fill="#2F2E41"/>
</g>
</svg>
