<svg width="47" height="47" viewBox="0 0 47 47" fill="none" xmlns="http://www.w3.org/2000/svg">
<g id="map-marker">
<path id="Vector" d="M23.5 23.25C22.5054 23.25 21.5516 22.8549 20.8483 22.1517C20.1451 21.4484 19.75 20.4946 19.75 19.5C19.75 18.5054 20.1451 17.5516 20.8483 16.8483C21.5516 16.1451 22.5054 15.75 23.5 15.75C24.4946 15.75 25.4484 16.1451 26.1517 16.8483C26.8549 17.5516 27.25 18.5054 27.25 19.5C27.25 19.9925 27.153 20.4801 26.9645 20.9351C26.7761 21.39 26.4999 21.8034 26.1517 22.1517C25.8034 22.4999 25.39 22.7761 24.9351 22.9645C24.4801 23.153 23.9925 23.25 23.5 23.25ZM23.5 9C20.7152 9 18.0445 10.1062 16.0754 12.0754C14.1062 14.0445 13 16.7152 13 19.5C13 27.375 23.5 39 23.5 39C23.5 39 34 27.375 34 19.5C34 16.7152 32.8938 14.0445 30.9246 12.0754C28.9555 10.1062 26.2848 9 23.5 9Z" fill="#2F2E41"/>
</g>
</svg>
