<svg width="36" height="36" viewBox="0 0 36 36" fill="none" xmlns="http://www.w3.org/2000/svg">
<g id="map-marker-outline">
<path id="Vector" d="M18 15.175C18.7578 15.175 19.4845 15.4779 20.0203 16.0171C20.5561 16.5562 20.8571 17.2875 20.8571 18.05C20.8571 18.4276 20.7832 18.8014 20.6397 19.1502C20.4961 19.499 20.2856 19.816 20.0203 20.0829C19.755 20.3499 19.44 20.5617 19.0934 20.7062C18.7467 20.8506 18.3752 20.925 18 20.925C17.2422 20.925 16.5155 20.6221 15.9797 20.0829C15.4439 19.5438 15.1429 18.8125 15.1429 18.05C15.1429 17.2875 15.4439 16.5562 15.9797 16.0171C16.5155 15.4779 17.2422 15.175 18 15.175ZM18 10C20.1217 10 22.1566 10.8481 23.6569 12.3578C25.1571 13.8675 26 15.915 26 18.05C26 24.0875 18 33 18 33C18 33 10 24.0875 10 18.05C10 15.915 10.8429 13.8675 12.3431 12.3578C13.8434 10.8481 15.8783 10 18 10ZM18 12.3C16.4845 12.3 15.031 12.9058 13.9594 13.9841C12.8878 15.0625 12.2857 16.525 12.2857 18.05C12.2857 19.2 12.2857 21.5 18 29.2165C23.7143 21.5 23.7143 19.2 23.7143 18.05C23.7143 16.525 23.1122 15.0625 22.0406 13.9841C20.969 12.9058 19.5155 12.3 18 12.3Z" fill="#2F2E41"/>
</g>
</svg>
