<svg width="49" height="49" viewBox="0 0 49 49" fill="none" xmlns="http://www.w3.org/2000/svg">
<g id="phone">
<path id="Vector" d="M17.1772 34.2281C19.1372 38.08 22.295 41.2378 26.1469 43.1978L29.1414 40.2033C29.5225 39.8222 30.0533 39.7133 30.5297 39.8631C32.0542 40.3667 33.6875 40.6389 35.3889 40.6389C35.7499 40.6389 36.0961 40.7823 36.3513 41.0376C36.6066 41.2928 36.75 41.639 36.75 42V46.7639C36.75 47.1249 36.6066 47.4711 36.3513 47.7263C36.0961 47.9816 35.7499 48.125 35.3889 48.125C29.2521 48.125 23.3666 45.6872 19.0272 41.3478C14.6878 37.0084 12.25 31.1229 12.25 24.9861C12.25 24.6251 12.3934 24.2789 12.6487 24.0237C12.9039 23.7684 13.2501 23.625 13.6111 23.625H18.375C18.736 23.625 19.0822 23.7684 19.3375 24.0237C19.5927 24.2789 19.7361 24.6251 19.7361 24.9861C19.7361 26.6875 20.0083 28.3208 20.5119 29.8453C20.6617 30.3217 20.5528 30.8525 20.1717 31.2336L17.1772 34.2281Z" fill="#2F2E41"/>
</g>
</svg>
