<svg width="46" height="46" viewBox="0 0 46 46" fill="none" xmlns="http://www.w3.org/2000/svg">
<g id="shopping-outline">
<path id="Vector" d="M36.4167 11.5003H32.5833C32.5833 6.13366 28.3667 1.91699 23 1.91699C17.6333 1.91699 13.4167 6.13366 13.4167 11.5003H9.58333C7.475 11.5003 5.75 13.2253 5.75 15.3337V38.3337C5.75 40.442 7.475 42.167 9.58333 42.167H36.4167C38.525 42.167 40.25 40.442 40.25 38.3337V15.3337C40.25 13.2253 38.525 11.5003 36.4167 11.5003ZM23 5.75033C26.2583 5.75033 28.75 8.24199 28.75 11.5003H17.25C17.25 8.24199 19.7417 5.75033 23 5.75033ZM36.4167 38.3337H9.58333V15.3337H36.4167V38.3337ZM23 23.0003C19.7417 23.0003 17.25 20.5087 17.25 17.2503H13.4167C13.4167 22.617 17.6333 26.8337 23 26.8337C28.3667 26.8337 32.5833 22.617 32.5833 17.2503H28.75C28.75 20.5087 26.2583 23.0003 23 23.0003Z" fill="#2F2E41"/>
</g>
</svg>
