<svg width="46" height="46" viewBox="0 0 46 46" fill="none" xmlns="http://www.w3.org/2000/svg">
<g id="truck-delivery">
<path id="Vector" d="M5.74984 7.66699C4.73317 7.66699 3.75815 8.07086 3.03926 8.78975C2.32037 9.50864 1.9165 10.4837 1.9165 11.5003V32.5837H5.74984C5.74984 34.1087 6.35564 35.5712 7.43397 36.6495C8.51231 37.7279 9.97484 38.3337 11.4998 38.3337C13.0248 38.3337 14.4874 37.7279 15.5657 36.6495C16.644 35.5712 17.2498 34.1087 17.2498 32.5837H28.7498C28.7498 34.1087 29.3556 35.5712 30.434 36.6495C31.5123 37.7279 32.9748 38.3337 34.4998 38.3337C36.0248 38.3337 37.4874 37.7279 38.5657 36.6495C39.644 35.5712 40.2498 34.1087 40.2498 32.5837H44.0832V23.0003L38.3332 15.3337H32.5832V7.66699M19.1665 11.5003L26.8332 19.167L19.1665 26.8337V21.0837H7.6665V17.2503H19.1665M32.5832 18.2087H37.3748L41.1507 23.0003H32.5832M11.4998 29.7087C12.2623 29.7087 12.9936 30.0116 13.5328 30.5507C14.0719 31.0899 14.3748 31.8212 14.3748 32.5837C14.3748 33.3462 14.0719 34.0774 13.5328 34.6166C12.9936 35.1558 12.2623 35.4587 11.4998 35.4587C10.7373 35.4587 10.0061 35.1558 9.46691 34.6166C8.92774 34.0774 8.62484 33.3462 8.62484 32.5837C8.62484 31.8212 8.92774 31.0899 9.46691 30.5507C10.0061 30.0116 10.7373 29.7087 11.4998 29.7087ZM34.4998 29.7087C35.2623 29.7087 35.9936 30.0116 36.5328 30.5507C37.0719 31.0899 37.3748 31.8212 37.3748 32.5837C37.3748 33.3462 37.0719 34.0774 36.5328 34.6166C35.9936 35.1558 35.2623 35.4587 34.4998 35.4587C33.7373 35.4587 33.0061 35.1558 32.4669 34.6166C31.9277 34.0774 31.6248 33.3462 31.6248 32.5837C31.6248 31.8212 31.9277 31.0899 32.4669 30.5507C33.0061 30.0116 33.7373 29.7087 34.4998 29.7087Z" fill="#2F2E41"/>
</g>
</svg>
